<svg version="1.1" id="??_1" width="100px" height="100px" viewBox="0 0 498.196 498.196" enable-background="new 0 0 489.75 498.196" xml:space="preserve" xmlns="http://www.w3.org/2000/svg" xmlns:xlink="http://www.w3.org/1999/xlink" xmlns:xml="http://www.w3.org/XML/1998/namespace" style="opacity: 1;  backface-visibility: hidden; overflow: hidden;">
                                <defs class="defs"></defs>
                                <path fill="#1E88E5" d="M405.75,435C388,449,388,449,370.5,461c-4.25,1.5-4.25,1.5-9.25,1.5c20.75-14,20.75-14,41-30.75
C404.5,434,404.5,434,405.75,435L405.75,435z M437.75,400.25L437.75,400.25c-13.5,16.5-13.5,16.5-29.5,32.25c-0.5-1-0.5-1-3-3.75
C424,410.5,424,410.5,440,391.25C439.5,396.75,439.5,396.75,437.75,400.25L437.75,400.25z M481,183.75L481,183.75
c3,9.75,5.25,20.75,6.75,31.25c0.5,5.25,0.5,5.25,0.5,10.5c-3-17.25-3-17.25-8.25-35.75c-0.5-10.5-0.5-10.5-2.5-18.75
C478.75,175,480,179.25,481,183.75L481,183.75z M488.75,228.5L488.75,228.5c0.5,5.25,0.5,10,1,15c-0.5-4.25-0.5-4.25-0.5-8.75
C489.25,231,489.25,231,488.75,228.5L488.75,228.5z M489.75,249.25L489.75,249.25c0,11.5-1,22.75-2.5,33.75c-1,7.25-1,7.25-2.5,14.5
c1-13,1-13,0.5-28c3-17.25,3-17.25,4.25-32.751C489.75,243,489.75,243,489.75,249.25L489.75,249.25z M484,300.5L484,300.5
c0,1.5-0.5,3.75-1,5.25c0-0.5,0-0.5,0-1.5C484,302.25,484,302.25,484,300.5L484,300.5z M482,310.5L482,310.5
c-4.25,15.5-9.75,30.5-16.5,45.25c2-5.25,2-5.25,3.75-11C477,325,477,325,482.75,307.5C482,309,482,309,482,310.5L482,310.5z
M463.75,359.25L463.75,359.25c-5.25,10-11,19.25-16.5,28c-3,5.25-3.75,5.25-6.75,9.75c1.5-3.75,1.5-3.75,2-9.25
C456,368,456,368,467,347.75C465.25,354,465.75,354,463.75,359.25L463.75,359.25z M356.75,468.75L356.75,468.75
c-9.25,5.25-19.25,9.25-29.5,13.5c-5.75,1.5-5.75,1.5-12,2.5C336,476,336,476,357.25,464.5c5.75-0.5,5.75-0.5,10-1.5
C362,466.25,362,466.25,356.75,468.75L356.75,468.75z M250,498L250,498c-12,0.5-24,0-35.25-1c-5.75-1-5.75-1-12-1.5
c15.5,0.5,15.5,0.5,33.25-1c15,2,15,2,28,2.5C256.5,497.5,256.5,497.5,250,498L250,498z M209.5,496.25L209.5,496.25
c-5.25-0.5-9.75-1.5-14.5-2c2.5,0,2.5,0,5.75,0.5C204.75,495.25,204.75,495.25,209.5,496.25L209.5,496.25z M181.75,491.25
L181.75,491.25c-15-3-29-8.25-43-14.5c8.25,3,8.25,3,18.25,4.75c18.25,6.75,18.25,6.75,35.25,12
C186.5,492.25,186.5,492.25,181.75,491.25L181.75,491.25z M128.5,472L128.5,472l-0.5-0.5c-16-8.75-16-8.75-32.75-19.75
c5.25,1.5,5.25,1.5,13,1.5c19.25,13,19.25,13,38.5,23.25C136.25,474.5,136.25,474.5,128.5,472L128.5,472z M120,467.25L120,467.25
c-9.25-4.75-18.25-10.5-27-17.25c0.5,0.5,0.5,0.5,1.5,1C107,460,107,460,120,467.25L120,467.25z M5.75,336L5.75,336
c-1-3-2-5.75-3-8.25c-2-8.75-2-8.75-2.5-18.75c7.25,19.75,7.25,19.75,17.25,40c0,8.25,0,8.25,1,14.5C11.5,349.5,11.5,349.5,5.75,336
L5.75,336z M269,0L269,0c1.5,0,2.5,0.5,3.75,0.5c-0.5,0-0.5,0-1.5,0C270.25,0,270.25,0,269,0L269,0z M342.25,20.25L342.25,20.25
c2,1,4.25,2,6.25,3c14,7.25,14,7.25,28,15.5c-6.25-1.5-6.25-1.5-14.5-2c-19.25-12-19.25-12-38.5-21.25
C334,17.25,334,17.25,342.25,20.25L342.25,20.25z M187,13.5L187,13.5C163,24,163,24,138.75,37c-9.75-3-9.75-3-17.25-4.25
c21.25-12,21.25-12,42.5-20.75C174,12,174,12,187,13.5L187,13.5z M232.75,1.5L232.75,1.5c-20.25,3.75-20.25,3.75-42,10.5
c-12.5-1.5-12.5-1.5-23.25-1.5c20.25-5.75,20.25-5.75,39-9.75C218.75,0,218.75,0,232.75,1.5L232.75,1.5z M55.75,165.5L55.75,165.5
C36.5,192,36.5,192,21.5,216.5c-5.75-19.25-5.75-19.25-9.25-35.75c13-22.75,13-22.75,29-46.75C46.75,148.5,46.75,148.5,55.75,165.5
L55.75,165.5z M108.25,109L108.25,109c-26,26-26,26-49,52.5c-9.25-17.75-9.25-17.75-15-31.25c19.75-24,19.75-24,42-46.75
C95.75,95,95.75,95,108.25,109L108.25,109z M276.75,13.5L276.75,13.5c-20.25,4.75-20.25,4.75-43.5,13
C215,18.75,215,18.75,198.5,13.5c22.25-6.75,22.25-6.75,42.5-11C258.25,6.75,258.25,6.75,276.75,13.5L276.75,13.5z M311.25,11.5
L311.25,11.5c-14-0.5-14-0.5-31.25,1.5c-18.75-6.75-18.75-6.75-35.25-11c17-1,17-1,32.75-0.5C293.5,5.25,293.5,5.25,311.25,11.5
L311.25,11.5z M25,322.5L25,322.5c-5.25,13.5-5.25,13.5-7.25,25C8,326.75,8,326.75,0,307c1.5-13.5,1.5-13.5,4.75-30
C13.75,299,13.75,299,25,322.5L25,322.5z M93.5,225.25L93.5,225.25c-23.25,27.001-23.25,27.001-42,52.001
C37,251.75,37,251.75,26,228.5c15.5-25,15.5-25,35.25-52C76,199.25,76,199.25,93.5,225.25L93.5,225.25z M156,162L156,162
c-30.75,29.5-30.75,29.5-58.25,58.25c-18.25-25.5-18.25-25.5-32.25-47.75c24-27.5,24-27.5,51.5-54
C134.5,138.75,134.5,138.75,156,162L156,162z M225,104.75L225,104.75c-31.75,25-31.75,25-64,52.5
c-21.25-23.25-21.25-23.25-39.5-43.5c29-24,29-24,58.75-45.75C201.5,84.5,201.5,84.5,225,104.75L225,104.75z M331.5,43L331.5,43
c-18.75,7.75-18.75,7.75-41,19.25c-24-16.5-24-16.5-45.75-30c23.25-8.75,23.25-8.75,43-14C309.5,29,309.5,29,331.5,43L331.5,43z
M360,36.75L360,36.75c-11,1.5-11,1.5-25.5,5.25c-22.25-13.5-22.25-13.5-43.5-24.5c17.25-2,17.25-2,30.75-2
C340.75,25,340.75,25,360,36.75L360,36.75z M67,383.25L67,383.25c-8.75,10-8.75,10-14.5,16.5c-15-20.25-15-20.25-28.5-41
c2.5-10.5,2.5-10.5,8.75-23.25C48.5,359.75,48.5,359.75,67,383.25L67,383.25z M152.75,299L152.75,299c-27,26-27,26-50.25,47.75
c-21.75-27.5-21.75-27.5-41.5-55c19.75-24.5,19.75-24.5,43.5-51.501C127.25,269.5,127.25,269.5,152.75,299L152.75,299z M351,122.5
L351,122.5c-24.5,20.75-24.5,20.75-53,45.25c-27.5-28.5-27.5-28.5-54-54c29.5-21.25,29.5-21.25,56-38.5
C325.75,97.5,325.75,97.5,351,122.5L351,122.5z M389,92L389,92c-15,12-15,12-34.25,27.5c-25.5-25-25.5-25-50.25-46.75
c21.75-12.5,21.75-12.5,39.5-20.25C367.25,70.5,367.25,70.5,389,92L389,92z M408.75,77.25L408.75,77.25C401.5,82,401.5,82,391,89.75
C369.25,69,369.25,69,346.25,50.75c14-4.75,14-4.75,24.5-6.75C390.5,60.25,390.5,60.25,408.75,77.25L408.75,77.25z M417,73.25
L417,73.25c-2.5,1-2.5,1-7.25,3.75c-18.25-17.25-18.25-17.25-37.5-32.75c7.75,0.5,7.75,0.5,13,1.5C402,58.75,402,58.75,417,73.25
L417,73.25z M162,413.75L162,413.75c-20.75,13-20.75,13-38,22.25c-22.25-19.75-22.25-19.75-44.25-41.5c14-13,14-13,32.25-29
C137.25,391,137.25,391,162,413.75L162,413.75z M221.75,371.75L221.75,371.75c-29.5,21.75-29.5,21.75-55.5,40
c-25.5-24-25.5-24-50.25-49.75c23.25-21.25,23.25-21.25,51.5-46.25C194.25,344.75,194.25,344.75,221.75,371.75L221.75,371.75z
M408.75,192.75L408.75,192.75c-20.25,24-20.25,24-45.75,50.75c-24-30-24-30-49.75-59.75c27.5-25,27.5-25,51.5-46.75
C388,164.5,388,164.5,408.75,192.75L408.75,192.75z M437.75,152.25L437.75,152.25c-11,16.5-11,16.5-26,36.25
C391,161,391,161,368.25,134c18.25-17.25,18.25-17.25,32.75-29.5C420.25,127.75,420.25,127.75,437.75,152.25L437.75,152.25z
M449.75,128.25L449.75,128.25C446,137.5,446,137.5,439.5,150c-17.25-24.5-17.25-24.5-36.75-47.75c9.25-8.75,9.25-8.75,16-14.5
C435.25,107.5,435.25,107.5,449.75,128.25L449.75,128.25z M450.75,115.25L450.75,115.25c0.5,4.75,0.5,4.75-1,11.5
c-14-20.25-14-20.25-30-40c3.75-3,3.75-3,5.75-5.25C439,98.25,439,98.25,450.75,115.25L450.75,115.25z M177.75,474L177.75,474
c-16,2-16,2-29,2.5c-19.25-10.5-19.25-10.5-39-24c10.5-1.5,10.5-1.5,24.5-6.25C156,461.5,156,461.5,177.75,474L177.75,474z
M348.5,374.25L348.5,374.25c-30,25.5-30,25.5-60.25,47.75C266,403.25,266,403.25,241,381c32.25-25.5,32.25-25.5,64.5-53.5
C328.25,352.5,328.25,352.5,348.5,374.25L348.5,374.25z M406.75,314.75L406.75,314.75c-25,28-25,28-53.5,55.5
c-19.75-21.75-19.75-21.75-42-47.75c31.25-29,31.25-29,59.75-58.75C390.5,290.75,390.5,290.75,406.75,314.75L406.75,314.75z
M447.75,258L447.75,258c-16,25-16,25-36.75,52c-16-24-16-24-35.75-51C399.75,232,399.75,232,419.5,207
C435.25,233.75,435.25,233.75,447.75,258L447.75,258z M469.5,213L469.5,213c-7.75,19.25-7.75,19.25-19.25,41.001
c-12.5-24.501-12.5-24.501-28-50.251c14-20.75,14-20.75,24-38C459.75,189.5,459.75,189.5,469.5,213L469.5,213z M476.25,180.75
L476.25,180.75c-1.5,13-1.5,13-5.75,29C460.75,187,460.75,187,447.75,163c5.75-13,5.75-13,8.75-23.25
C467.5,160.5,467.5,160.5,476.25,180.75L476.25,180.75z M473.75,160L473.75,160c1.5,8.25,1.5,8.25,2.5,18.75
c-8.75-20.25-8.75-20.25-19.25-40.5c0.5-7.75,0.5-7.75-0.5-13.5C465.75,142.25,465.75,142.25,473.75,160L473.75,160z M226.5,492.75
L226.5,492.75c-17.25,1-17.25,1-32.25,0.5C177,488.5,177,488.5,159,481.25c13.5,0,13.5,0,30-1.5
C208.75,487.5,208.75,487.5,226.5,492.75L226.5,492.75z M272.75,480.75L272.75,480.75C250,488,250,488,230.25,492.25
C212,487,212,487,192.25,478.75c20.25-5.25,20.25-5.25,43.5-13.5C255.5,474.5,255.5,474.5,272.75,480.75L272.75,480.75z
M327.25,454.25L327.25,454.25c-26,14-26,14-50.5,25C259.5,473,259.5,473,240,463.75c26-13,26-13,54-30
C312.25,445.5,312.25,445.5,327.25,454.25L327.25,454.25z M383.25,412.75L383.25,412.75c-25.5,20.75-25.5,20.75-51.5,38.5
c-15-8.75-15-8.75-32.75-21.25c29.5-20.75,29.5-20.75,58.75-45.25C372.5,400.25,372.5,400.25,383.25,412.75L383.25,412.75z
M432,360.75L432,360.75c-20.75,24.5-20.75,24.5-44.25,47.75c-11-12.5-11-12.5-25.5-28c27-27,27-27,51.5-54
C424.25,345.75,424.25,345.75,432,360.75L432,360.75z M465.75,309L465.75,309c-13.5,23.25-13.5,23.25-30.75,47.75
c-7.25-15.5-7.25-15.5-17.75-34.75c20.25-26.5,20.25-26.5,35.75-51.5C460.75,291.25,460.75,291.25,465.75,309L465.75,309z
M483.5,263.25L483.5,263.25c-6.75,20.25-6.75,20.25-16,41.5c-4.25-17.75-4.25-17.75-12-38C467,244.5,467,244.5,473.75,224.75
C480,245,480,245,483.5,263.25L483.5,263.25z M488.25,228L488.25,228c-1,15-1,15-4.25,32.251C481,242,481,242,474.75,221.75
c3.75-16.5,3.75-16.5,5.25-30C485,210.25,485,210.25,488.25,228L488.25,228z M306,486.5L306,486.5c-20.25,5.75-20.25,5.75-39,9.75
c-13-0.5-13-0.5-28-2.5c20.25-3.75,20.25-3.75,42.5-11C295,485.5,295,485.5,306,486.5L306,486.5z M353.75,464.25L353.75,464.25
c-22.25,12-22.25,12-44.25,20.75c-11-0.5-11-0.5-24.5-3c24-10.5,24-10.5,49.25-24.5C345,462,345,462,353.75,464.25L353.75,464.25z
M400,430L400,430c-20.75,17.25-20.75,17.25-42.5,31.75c-8.25-2-8.25-2-18.75-6.25c25.5-17.75,25.5-17.75,49.75-37.5
C395.25,425.25,395.25,425.25,400,430L400,430z M440,387.25L440,387.25c-17.25,20.25-17.25,20.25-35.75,39.5
c-5.25-5.25-5.25-5.25-11.5-13C415,391.5,415,391.5,434.75,368C438.25,379,438.25,379,440,387.25L440,387.25z M468,342.75
L468,342.75c-11.5,20.25-11.5,20.25-25.5,41c-1-8.25-1-8.25-4.75-19.75c16.5-23.25,16.5-23.25,29.5-46.25
C468.5,331.25,468.5,331.25,468,342.75L468,342.75z M483.5,300.5L483.5,300.5c-5.25,18.75-5.25,18.75-13.5,38.5
c0-11.5,0-11.5-1-25.5c9.25-21.25,9.25-21.25,15.5-41C484.5,287.75,484.5,287.75,483.5,300.5L483.5,300.5z M161.75,295l55.5-48.751
L164,182.5l-54.25,55C114,242.75,161.75,295,161.75,295z M296.75,310l63-61.25L309,187.5L239.75,250
C244,255.25,296.75,310,296.75,310z M229.25,370l60.5-56.25L236.5,255l-64.25,55C176.5,315.25,229.25,370,229.25,370z" class=""></path>
                            </svg>