<?xml version="1.0" standalone="no"?>
<!DOCTYPE svg PUBLIC "-//W3C//DTD SVG 20010904//EN"
 "http://www.w3.org/TR/2001/REC-SVG-20010904/DTD/svg10.dtd">
<svg version="1.0" xmlns="http://www.w3.org/2000/svg"
 width="260.000000pt" height="250.000000pt" viewBox="0 0 260.000000 250.000000"
 preserveAspectRatio="xMidYMid meet">

<g transform="translate(0.000000,250.000000) scale(0.100000,-0.100000)"
fill="#000000" stroke="none">
<path d="M735 2201 c-226 -106 -250 -120 -250 -142 0 -18 5 -23 19 -21 10 2
122 53 249 113 127 60 234 109 239 109 5 0 68 -28 141 -63 112 -54 137 -62
160 -54 15 5 27 12 27 16 0 7 -320 162 -330 160 -3 0 -117 -53 -255 -118z"/>
<path d="M1389 2097 c-15 -11 0 -20 100 -67 64 -29 120 -57 124 -60 5 -4 -53
-34 -127 -66 -125 -54 -134 -60 -113 -71 34 -19 46 -16 165 37 61 28 116 50
122 50 6 0 10 -42 10 -110 0 -103 1 -110 20 -110 19 0 20 7 20 141 l0 140
-135 65 c-139 66 -159 72 -186 51z"/>
<path d="M277 1974 c-4 -4 -7 -191 -7 -414 0 -314 3 -410 13 -418 6 -5 168
-82 360 -170 l347 -160 170 78 170 77 -31 16 c-31 14 -34 14 -156 -44 -69 -32
-127 -59 -129 -59 -2 0 -4 54 -4 120 0 66 -4 120 -8 120 -5 0 -14 10 -20 23
-8 17 -11 -11 -11 -120 -1 -79 -3 -143 -4 -143 -2 0 -118 53 -258 118 -140 65
-287 134 -326 152 l-73 33 0 363 c0 266 3 364 11 364 11 0 251 -100 509 -212
63 -28 121 -52 128 -55 8 -3 12 5 12 23 0 28 -7 32 -326 168 -348 148 -356
151 -367 140z"/>
<path d="M1140 1752 c-95 -43 -105 -50 -108 -76 -4 -34 -19 -37 161 41 121 53
127 57 105 69 -34 19 -43 17 -158 -34z"/>
<path d="M1336 1681 c-4 -5 -2 -12 3 -15 5 -4 12 -2 15 3 4 5 2 12 -3 15 -5 4
-12 2 -15 -3z"/>
<path d="M1475 1670 c-3 -5 -1 -10 4 -10 6 0 11 5 11 10 0 6 -2 10 -4 10 -3 0
-8 -4 -11 -10z"/>
<path d="M1200 1660 c0 -5 5 -10 10 -10 6 0 10 5 10 10 0 6 -4 10 -10 10 -5 0
-10 -4 -10 -10z"/>
<path d="M1235 1610 c-7 -12 2 -30 16 -30 12 0 12 27 0 35 -5 3 -12 1 -16 -5z"/>
<path d="M1435 1609 c-10 -15 1 -23 20 -15 9 3 13 10 10 16 -8 13 -22 13 -30
-1z"/>
<path d="M1670 1566 c0 -50 2 -56 21 -56 18 0 20 5 17 52 -2 41 -7 54 -20 56
-15 3 -18 -5 -18 -52z"/>
<path d="M1332 1583 c4 -21 33 -25 33 -3 0 8 -8 16 -18 18 -14 3 -18 -1 -15
-15z"/>
<path d="M1550 1555 c0 -9 5 -15 11 -13 6 2 11 8 11 13 0 5 -5 11 -11 13 -6 2
-11 -4 -11 -13z"/>
<path d="M1122 1549 c2 -6 8 -10 13 -10 5 0 11 4 13 10 2 6 -4 11 -13 11 -9 0
-15 -5 -13 -11z"/>
<path d="M1273 1524 c-8 -22 10 -49 32 -49 10 0 22 7 28 16 15 24 1 49 -28 49
-15 0 -28 -7 -32 -16z"/>
<path d="M1367 1534 c-12 -12 -8 -41 7 -53 22 -18 58 4 54 32 -3 22 -45 36
-61 21z"/>
<path d="M1465 1521 c-8 -15 3 -31 21 -31 9 0 14 7 12 17 -4 20 -24 28 -33 14z"/>
<path d="M1196 1511 c-3 -5 0 -14 8 -20 10 -8 16 -8 25 2 6 8 8 17 4 20 -9 10
-31 9 -37 -2z"/>
<path d="M1416 1454 c-9 -8 -16 -19 -16 -23 0 -14 25 -31 46 -31 27 0 41 34
24 55 -16 19 -35 19 -54 -1z"/>
<path d="M1237 1453 c-15 -15 -6 -52 14 -58 28 -9 53 16 44 44 -6 20 -43 29
-58 14z"/>
<path d="M1537 1444 c-13 -13 -7 -24 14 -24 11 0 19 5 17 12 -5 14 -22 21 -31
12z"/>
<path d="M1135 1431 c-3 -5 -1 -12 5 -16 12 -7 30 2 30 16 0 12 -27 12 -35 0z"/>
<path d="M1286 1377 c-28 -21 -17 -52 19 -52 24 0 31 5 33 24 2 13 -2 28 -10
32 -18 12 -21 11 -42 -4z"/>
<path d="M1370 1375 c-18 -22 -3 -55 25 -55 33 0 51 33 29 54 -19 20 -38 20
-54 1z"/>
<path d="M1477 1373 c-4 -3 -7 -12 -7 -20 0 -15 26 -18 34 -4 7 11 -18 33 -27
24z"/>
<path d="M1204 1359 c-10 -17 13 -36 27 -22 12 12 4 33 -11 33 -5 0 -12 -5
-16 -11z"/>
<path d="M1130 1305 c0 -9 5 -15 11 -13 6 2 11 8 11 13 0 5 -5 11 -11 13 -6 2
-11 -4 -11 -13z"/>
<path d="M1550 1310 c0 -5 7 -10 15 -10 8 0 15 5 15 10 0 6 -7 10 -15 10 -8 0
-15 -4 -15 -10z"/>
<path d="M1335 1291 c-8 -15 3 -31 21 -31 9 0 14 7 12 17 -4 20 -24 28 -33 14z"/>
<path d="M1445 1270 c-4 -6 -3 -16 3 -22 6 -6 12 -6 17 2 4 6 3 16 -3 22 -6 6
-12 6 -17 -2z"/>
<path d="M1240 1255 c0 -8 7 -15 15 -15 8 0 15 7 15 15 0 8 -7 15 -15 15 -8 0
-15 -7 -15 -15z"/>
<path d="M1480 1200 c0 -5 5 -10 10 -10 6 0 10 5 10 10 0 6 -4 10 -10 10 -5 0
-10 -4 -10 -10z"/>
<path d="M1210 1189 c0 -5 5 -7 10 -4 6 3 10 8 10 11 0 2 -4 4 -10 4 -5 0 -10
-5 -10 -11z"/>
<path d="M1346 1191 c-4 -5 -2 -12 3 -15 5 -4 12 -2 15 3 4 5 2 12 -3 15 -5 4
-12 2 -15 -3z"/>
<path d="M1517 1111 c-82 -38 -149 -72 -150 -76 -1 -5 11 -13 26 -18 25 -8 46
-1 153 49 116 54 124 59 124 86 0 15 -1 28 -2 28 -2 -1 -70 -31 -151 -69z"/>
<path d="M1429 653 c-11 -3 -18 -20 -23 -56 -8 -67 -8 -381 0 -429 l7 -38 167
0 c122 0 170 3 178 13 15 18 23 90 13 107 -8 11 -37 16 -118 20 l-108 5 -3
183 -2 183 -26 9 c-26 10 -56 11 -85 3z"/>
<path d="M1827 653 c-13 -12 -8 -498 5 -511 8 -8 52 -12 133 -12 133 0 184 15
223 64 41 53 48 168 12 211 -10 12 -9 23 4 55 21 54 20 98 -4 137 -33 55 -62
63 -223 63 -79 0 -147 -3 -150 -7z m253 -161 c0 -5 -18 -14 -40 -21 -40 -12
-47 -23 -49 -81 0 -33 16 -50 49 -50 30 0 59 -26 44 -40 -5 -4 -36 -10 -69
-12 l-60 -3 -3 108 -3 107 66 0 c36 0 65 -4 65 -8z"/>
<path d="M660 545 c0 -13 19 -15 132 -13 94 2 133 7 136 16 3 9 -28 12 -132
12 -115 0 -136 -2 -136 -15z"/>
<path d="M1128 529 c-25 -14 -23 -33 1 -19 28 14 38 13 61 -10 21 -21 26 -11
10 21 -12 21 -45 24 -72 8z"/>
<path d="M970 433 c0 -4 4 -14 9 -21 10 -16 103 -12 108 5 3 8 -8 10 -35 6
-22 -3 -49 0 -61 6 -11 7 -21 8 -21 4z"/>
<path d="M1256 325 c-33 -30 -55 -55 -50 -55 5 0 34 25 64 55 69 70 62 70 -14
0z"/>
<path d="M660 355 c0 -21 158 -22 186 0 17 13 9 14 -83 15 -85 0 -103 -3 -103
-15z"/>
<path d="M974 177 c3 -10 6 -23 6 -28 0 -5 81 -9 190 -9 120 0 190 4 190 10 0
6 -68 10 -185 10 -164 0 -185 2 -195 18 -11 16 -11 16 -6 -1z"/>
<path d="M540 166 c0 -19 45 -39 70 -31 10 3 23 12 30 20 9 11 4 12 -29 8 -26
-4 -46 -1 -56 7 -12 10 -15 10 -15 -4z"/>
</g>
</svg>
